<svg fill="none" xmlns="http://www.w3.org/2000/svg" viewBox="0 0 331 321"><path d="M170 0h-2.9l-3 .1-2.8.1-3 .2-1.9.2-1.9.1-2 .2-1.8.3-3.8.5-3.8.5-3.8.7-3.8.8-3.7.9-3.7.9-3.7 1-3.6 1.1-3.6 1.2-3.6 1.3-3.5 1.4-3.5 1.4-3.4 1.6-3.5 1.6-3.3 1.7-3.4 1.7-1.6 1-1.7 1-3.3 1.9-3.3 2-3.2 2.1-3.2 2.2-3 2.3-3.1 2.3-3 2.4-3 2.5-2.8 2.5-2.8 2.6-2.8 2.7-2.6 2.7-2.7 2.8-2.5 2.9-2.5 3-2.4 2.9-2.3 3-2.3 3.1-2.2 3.2-2.1 3.2-2 3.2-2 3.2-1.8 3.3-1.8 3.3-1.7 3.4-1.6 3.4-1.6 3.5-1.4 3.5-1.4 3.5-1.3 3.6-1.2 3.6-1.1 3.6-1 3.7-1 3.7-.9 3.7-.8 3.7-.3 2-.4 1.8-.3 2-.3 1.8-.3 2.9-.4 2.9-.3 2.9-.2 2.9-.2 2.9-.1 2.9v2.9l-.1 3m321.9-.1v-3l-.1-2.8-.1-3-.2-2.8-.2-2-.1-1.9-.2-1.9-.2-2-.6-3.7-.6-3.8-.6-3.8-.8-3.7-.9-3.7-1-3.7-1-3.7-1-3.6-1.3-3.6-1.3-3.5-1.3-3.6-1.5-3.5-1.5-3.4-1.6-3.4-1.7-3.4-1.8-3.3-1-1.7-.9-1.6-2-3.3-2-3.3-2-3.2-2.3-3.1-2.2-3.1-2.4-3-2.4-3-2.5-3-2.5-2.8-2.6-2.8-2.7-2.8-2.8-2.6-2.8-2.7-2.8-2.5-3-2.5-3-2.4-3-2.3-3.1-2.3-3.2-2.2-3.2-2-3.2-2-3.2-2-3.3-1.8-3.4-1.8-3.3-1.7-3.5-1.6-3.4-1.6-3.5-1.4-3.6-1.4-3.6-1.3-3.6-1.2-3.6-1.1-3.7-1-3.7-1-3.8-.9L201 3l-2-.3-1.8-.3-2-.4-1.8-.2-2.9-.4-2.9-.4-2.9-.3-2.9-.2-2.9-.2-3-.1H173l-3-.1m0 321h3l2.9-.1 3-.1 2.8-.2 2-.2 1.9-.1 1.9-.2 2-.2 3.7-.6 3.8-.5 3.8-.7 3.8-.8 3.7-.9 3.7-.9 3.6-1 3.7-1.1 3.6-1.2 3.5-1.3 3.6-1.4 3.5-1.4 3.4-1.6 3.4-1.6 3.4-1.7 3.3-1.7 1.7-1 1.7-.9 3.3-2 3.3-2 3.2-2.1 3.1-2.2 3.1-2.3 3.1-2.3 3-2.4 3-2.5 2.8-2.5 2.8-2.6 2.7-2.7 2.7-2.7 2.6-2.8 2.6-2.9 2.5-3 2.4-2.9 2.3-3 2.3-3.1 2.2-3.2 2.1-3.2 2-3.2 2-3.2 1.8-3.3 1.8-3.3 1.7-3.4 1.6-3.4 1.5-3.5 1.5-3.4 1.4-3.6 1.3-3.6 1.2-3.6 1.1-3.6 1-3.7 1-3.7.9-3.7.8-3.8.3-1.8.3-2 .3-1.8.3-2 .4-2.8.4-2.9.3-2.9.2-2.9.2-2.9.1-2.9v-2.9l.1-2.9m-322 0 .1 3v2.8l.2 3 .2 2.8.1 2 .2 1.9.2 1.9.2 2 .5 3.7.6 3.8.7 3.8.8 3.7.8 3.7 1 3.7 1 3.7 1.1 3.6 1.3 3.6 1.2 3.5 1.4 3.6 1.5 3.4 1.5 3.5 1.6 3.4 1.7 3.4 1.8 3.3.9 1.7 1 1.6 2 3.3 2 3.3 2 3.2 2.3 3.1 2.2 3.1 2.4 3 2.4 3 2.5 3 2.5 2.8 2.6 2.8 2.7 2.8 2.7 2.7 2.9 2.6 2.8 2.5 3 2.5 3 2.4 3 2.3 3.1 2.3 3.2 2.2 3.2 2 3.2 2 3.2 2 3.3 1.8 3.3 1.8 3.4 1.7 3.4 1.6 3.5 1.6 3.5 1.4 3.6 1.4 3.5 1.3 3.7 1.2 3.6 1.1 3.7 1 3.7 1 3.7.9 3.8.8 1.9.3 1.9.3 1.9.4 2 .2 2.8.4 2.9.4 2.9.3 2.9.2 2.9.2 2.9.1h3l2.8.1M329 159.5h-22.1v-3.2l-.2-3.1-.2-3.2-.3-3-.3-3.2-.4-3-.5-3.1-.6-3-.6-3-.7-3.1-.7-3-.7-2.4-.7-2.5-.8-2.4-.8-2.4-.6-1.6-.5-1.6-1.3-3-1.3-3.2-1.3-3-1.5-3-1.5-3-1.5-3-1.7-2.8-1.6-2.8-1.8-2.7-1.8-2.7-1.9-2.7-1.9-2.6-2-2.5-2-2.5-2.2-2.5-2.1-2.4-2.3-2.4-2.2-2.3-2.4-2.2-2.4-2.2-2.4-2.2-2.5-2-2.5-2-2.6-2-2.7-2-2.3-1.5-2.3-1.6-2.4-1.5-2.5-1.5m0 0 11-19m0 0 3.2 1.8 3 2 3.1 2 3 2.1 3 2.1 2.8 2.3 2.8 2.3 2.8 2.3 2.8 2.4 2.6 2.5 2.6 2.5 2.6 2.6 2.5 2.6 2.4 2.7L292 59l2.3 2.8 2.2 2.9 2.2 2.9 2.1 3 2 3 2 3 2 3.1 1.7 3.1 1.8 3.1 1.6 3.2 1.6 3.2 1.5 3.3 1.4 3.2 1.4 3.4 1.3 3.3 1.2 3.4 1.2 3.4 1 3.5 1 3.4.9 3.5.8 3.6.8 3.5.6 3.6.6 3.6.3 1.8.2 1.8.2 1.8.2 1.8.3 2.7.2 2.8.2 2.7v2.8l.1 2.2v2.2M170 294.8h-3l-3.2-.2-3.1-.1-3.1-.3-3.1-.3-3-.4-3.2-.5-3-.5-3-.6-3-.6-3-.8-2.4-.6-2.5-.7-2.4-.8-2.4-.7-1.5-.6-1.6-.6-3.1-1.2-3.1-1.2-3-1.4-3.1-1.4-3-1.5-1.5-.8-1.5-.8-2.9-1.6-2.9-1.7-2.8-1.8-2.8-1.9-2.7-2-2.7-2-2.7-2-2.5-2.1-2.6-2.2-2.4-2.2-2.5-2.3-2.3-2.4-2.3-2.4-2.3-2.5-2.1-2.6-2.2-2.6-2-2.6-2-2.7-2-2.7-1.8-2.8-1.7-2.9-1.8-2.8-1.6-3-1.5-2.9-1.5-3-1.4-3-1.4-3-.6-1.6-.6-1.6-.8-2-.8-2.2-.7-2-1-3-.8-3-.8-2.9-.8-3-.6-3-.6-3-.6-3-.4-3-.4-3.2-.3-3-.3-3.1-.2-3.2v-3l-.1-3.2m0 0v-3.1l.1-3.1.2-3.1.3-3.1.3-3.1.4-3 .4-3.1.5-3 .6-3 .7-3 .7-3 .7-2.5.7-2.4.7-2.4.8-2.4.6-1.5.5-1.6 1.2-3.1 1.3-3.1 1.4-3 1.4-3 1.5-3 .8-1.5.8-1.5 1.6-3 1.7-2.8 1.9-2.8 1.8-2.8 2-2.7 2-2.7 2-2.6 2.1-2.6 2.2-2.6 2.3-2.4 2.3-2.4 2.4-2.4 2.4-2.3 2.5-2.2 2.5-2.2 2.6-2.1 2.7-2 2.7-2 2.7-2 2.9-1.8 2.8-1.8L103 44l2.9-1.6 3-1.5 3-1.5 3-1.4 3-1.4 1.6-.6 1.6-.6 2-.8 2.2-.8 2-.7 3-1 3-.8 3-.8 3-.7 3-.7 3-.6 3-.5 3-.5 3.1-.4 3.2-.3 3-.3 3.2-.1 3.1-.1h3.1m0 0H176.3l3.1.2 3.1.3 3.1.3 3 .4 3.1.5 3 .5 3.1.6 3 .6 3 .8 2.4.6 2.4.7 2.5.8 2.3.7 1.6.6 1.6.6 3.1 1.2 3.1 1.2 3 1.4 3 1.4 3 1.5 1.6.8 1.4.8 3 1.6 2.8 1.7 2.9 1.8 2.8 1.9 2.7 2 2.7 2 2.6 2 2.6 2.1 2.6 2.2 2.4 2.2 2.4 2.3 2.4 2.4 2.3 2.4 2.2 2.5 2.2 2.6 2.2 2.5 2 2.7 2 2.7 1.9 2.7 1.9 2.8 1.7 2.9 1.7 2.8 1.7 3 1.5 2.9 1.5 3 1.4 3 1.4 3 .6 1.6.6 1.6.8 2 .8 2.2.7 2 1 3 .8 3 .8 2.9.8 3 .6 3 .6 3 .6 3 .4 3 .4 3.2.3 3 .3 3.2.2 3v3.2l.1 3.1m0 0v3.1l-.1 3.1-.2 3.2-.3 3-.3 3.1-.4 3-.4 3.1-.6 3-.6 3-.6 3-.8 3-.6 2.5-.7 2.4-.8 2.4-.7 2.4-.6 1.5-.6 1.6-1.2 3.1-1.2 3.1-1.4 3-1.4 3-1.5 3-.8 1.5-.8 1.5-1.6 3-1.8 2.8-1.8 2.8-1.8 2.8-2 2.7-2 2.7-2 2.6-2.2 2.6-2.2 2.6-2.2 2.4-2.3 2.4-2.4 2.4-2.4 2.3-2.5 2.2-2.6 2.2-2.6 2.1-2.6 2-2.7 2-2.8 2-2.8 1.8-2.8 1.8-2.9 1.7-2.9 1.6-3 1.5-3 1.5-3 1.4-3 1.4-1.6.6-1.6.6-2 .8-2.2.8-2.1.7-3 1-2.9.8-3 .8-3 .7-3 .7-3 .6-3 .5-3 .5-3.2.4-3 .3-3.2.3-3.1.1-3.1.1H170m78.5-271.9-11 19m0 0A136.4 136.4 0 0 0 170 24.2m0 0c-23.6 0-46.9 6.1-67.4 17.8l-11-19M170 2c-27.5 0-54.5 7.1-78.5 20.7m157 0C224.6 9.2 197.5 2.1 170 2.1M89.7 23.9l11 19m0 0L98 44.6l-2.8 1.8-2.7 1.8L90 50l-2.7 2-2.5 2-2.5 2-2.5 2.2-2.4 2.1-2.4 2.3-2.3 2.2-2.2 2.4-2.2 2.4L66 72l-2 2.5-2 2.5-2 2.6-2 2.7-1.8 2.6-1.8 2.8-1.7 2.8-1.7 3-1.7 2.9-1.5 3-1.5 3-.7 1.5-.7 1.6-.7 1.5-.6 1.6-.9 2-.8 2.2-.8 2-1 3-.9 3-.9 2.9-.8 3-.7 3-.7 3-.6 3-.5 3.1-.4 3.1-.4 3.1-.3 3.1-.3 2.8-.1 2.9-.1 2.8-.1 2.9m0 0h-22m0 0v-5.6l.2-2.7.2-2.8.1-1.8.2-1.8.2-1.8.2-1.8.5-3.7.5-3.5.7-3.6.7-3.6.8-3.5.9-3.5 1-3.5 1-3.4 1.1-3.4 1.2-3.4 1.3-3.4 1.4-3.3 1.4-3.3 1.5-3.2 1.5-3.2 1.7-3.2 1.7-3.1.9-1.6 1-1.6 1.8-3.1 2-3 2-3 2-3 2.2-3 2.3-2.9 2.3-2.8 2.3-2.7 2.4-2.8 2.5-2.6 2.6-2.6 2.6-2.6 2.6-2.4 2.7-2.5 2.8-2.3 2.8-2.3 3-2.2 2.8-2.2 3-2.1 3-2 3.1-2 1.8-1.1 2-1.1M33.2 161.5h-22v4.4l.1 2.8.2 2.7.2 2.8.2 2.7.2 1.8.3 1.8.2 1.8.3 1.8.5 3.6.7 3.6.8 3.5.8 3.6.9 3.5 1 3.4 1 3.5 1.2 3.4 1.2 3.4 1.3 3.3 1.3 3.4 1.5 3.2 1.5 3.3 1.6 3.2 1.6 3.2 1.8 3 1.8 3.2 1.9 3 2 3.1 2 3 2 3 2.3 3 2.2 2.8 2.3 2.8 2.4 2.8 2.4 2.7 2.5 2.6 2.5 2.6 2.7 2.5 2.6 2.5 2.8 2.4 2.7 2.3 2.9 2.3 2.8 2.3 3 2.1 3 2.1 3 2 3 2 3.2 1.8M33.3 161.5v3.2l.2 3.1.2 3.1.3 3.2.3 3 .4 3.1.5 3.1.6 3 .6 3 .7 3 .7 3 .7 2.5.7 2.5.8 2.4.8 2.4.5 1.6.6 1.6 1.2 3 1.3 3.2 1.4 3 1.5 3 1.5 3 1.5 3 1.6 2.8 1.7 2.8 1.8 2.7 1.8 2.7 1.8 2.7 2 2.6 2 2.5 2 2.5 2.1 2.5 2.2 2.4 2.2 2.4 2.3 2.3 2.4 2.2 2.3 2.2L81 264l2.5 2 2.5 2 2.6 2 2.6 2 2.4 1.5 2.3 1.6 2.4 1.5 2.5 1.5m0 0-11 19m1.7 1 11-19A136.4 136.4 0 0 0 170 297m0 0c23.7 0 47-6.1 67.5-17.8m0 0 11 19M170 319c27.6 0 54.6-7.1 78.6-20.7m-157 0c23.8 13.6 50.9 20.7 78.4 20.7m80.4-21.8-11-19 2.7-1.7 2.8-1.8 2.7-1.8 2.6-1.9 2.6-1.9 2.6-2 2.5-2 2.5-2.2 2.4-2.1 2.4-2.3 2.3-2.2 2.2-2.4 2.2-2.4 2.2-2.4 2-2.5 2-2.5 2-2.6 2-2.7 1.8-2.6 1.8-2.8 1.7-2.8 1.7-3 1.6-2.9 1.6-3 1.5-3 .7-1.5.7-1.6.7-1.5.6-1.6.9-2 .8-2.1.7-2.2 1-2.9 1-3 .8-2.9.8-3 .8-3 .6-3 .6-3 .6-3.1.4-3.1.4-3.1.3-3.1.3-2.8.1-2.9.1-2.8v-2.9m0 0H329m0 0v2.8l-.2 2.8-.1 2.7-.2 2.8-.1 1.8-.2 1.8-.2 1.8-.2 1.8-.5 3.6-.5 3.6-.7 3.6-.7 3.6-.8 3.5-1 3.5-.9 3.5-1 3.4-1.1 3.4-1.2 3.4-1.3 3.4-1.4 3.3-1.4 3.3-1.5 3.2-1.6 3.2-1.6 3.2-1.7 3.1-.9 1.6-1 1.6-1.8 3.1-2 3-2 3-2 3-2.3 3-2.2 2.9-2.3 2.8-2.3 2.7-2.5 2.8-2.4 2.6-2.6 2.6-2.6 2.6-2.6 2.4-2.7 2.5-2.8 2.3-2.8 2.3-3 2.2-2.8 2.2-3 2.1-3 2-3.1 2-1.9 1.1-1.8 1.1m-55-82.9a113 113 0 0 0-11-2m.5 15.6c4-4.2 7.5-8.7 10.5-13.6M185 227.8a95 95 0 0 0-6.8-.8c2.4-4.8 4.5-9.8 6.2-14.8m-41.4 2.4c-3.7 1-7.3 2-10.9 3.4m10.9-3.4c3 4.8 6.4 9.4 10.2 13.5m0 0-6 1.3M132 218c4.5 4.4 9.6 8.2 15.1 11.4m10.4-17.4c1.8 5 3.9 10 6.3 14.8m18.8-14.8c-8.3-1-16.8-1-25.1 0m18.8 14.8a122 122 0 0 0 6.3-14.8m-6.3 14.8c-4.2-.3-8.3-.3-12.5 0m-19.2-12.6c3 4.9 6.6 9.4 10.6 13.6m.5-15.6c-3.7.5-7.4 1.2-11 2m11-2c1.8 5 3.9 10 6.3 14.8m0 0c-2.3.1-4.6.4-6.8.8m-28.6-7.7c5.3 4 11.1 7 17.3 9.4m-17.3-9.4 3.7-1.4c4 4 8.7 7.7 13.6 10.8m5.5 1.1 3 1.5m2.2-2.5-5.2 1m5.2-1a74 74 0 0 0 3.8 3.7m-6-1.2 6 1.2m-1.8-4a72 72 0 0 0 5 4.5m1.2-5.2-6.2.7m6.2-.7 3.1 5.5m-4.3-.3 4.3.3m15.7-.8c2.1-.3 4.1-.7 6.2-1.2m-6.2 1.2 4-3.7m5.1 1-5.2-1m2.3 2.5 2.9-1.5m-16.5 3.5 3-5.5m6.2.7-6.1-.7m1.2 5.2a74 74 0 0 0 5-4.5m-9.3 4.8 4.3-.3m8.4-5.7c3.9-4.1 7.3-8.7 10.3-13.5m0 0c3.7 1 7.3 2 10.9 3.4a75.5 75.5 0 0 1-15.1 11.4c-2-.5-4-1-6-1.3m-17 .2c-1.7 0-3.5 0-5.3.2m10.7 0-5.4-.2m5.4.2c-1 2-2.1 3.8-3.3 5.7h-.8l-.7.1H168l-3.3-5.8m31.4 1c6.2-2.3 12-5.5 17.4-9.4m-17.4 9.4c5-3 9.6-6.7 13.7-10.8m3.7 1.4-3.7-1.4m-103.5-59.9-6.8-5.3m6.8 5.3v.8H95.9m.4-6.1a72 72 0 0 0-.4 6.1m3.6-6.1h-3.2m14.3 8.7-1-.8m18.4.8h-17.4m17.4 0c.1 9.4 1.5 18.8 4 27.9m.1 0c-5.5 1.6-10.8 3.5-16 5.7a81 81 0 0 1-8-34.4h1.5m23 30.3a97.9 97.9 0 0 0 9.3 21.4m0 0c-3.8 1-7.5 2.2-11.2 3.5m-13.9-19.3a79 79 0 0 0 13.9 19.3m1.9-24.9c-5.4 1.6-10.7 3.4-15.8 5.6m-1.6.7a143 143 0 0 0-6.8 3.3m6.8-3.3c3.6 7.1 8.2 13.6 13.7 19.3m0 0-4 1.7m-16.5-17.7A74.5 74.5 0 0 0 125 219m-18.7-57.6H96c.1 13.6 4.1 27 11.5 38.5m-1.2-38.5c.1 12.1 3 24.1 8.2 35m0 0-7 3.4m118-3.3c2.5 1 4.8 2.2 7.1 3.3a73.2 73.2 0 0 0 11.5-38.4m-18.5 35c5.3-10.9 8-22.9 8.2-35m10.3 0h-10.3m6.8-8-6.8 5.4m10-5.3h-3.2m3.2 0c.2 2 .3 4 .3 6.1h-10.3m0-.8v.8m-9 38.4c-3.6 7.1-8.2 13.6-13.6 19.3 1.3.5 2.6 1 3.9 1.7 6.5-5 12-11 16.6-17.7m0 0-6.9-3.3m7.3-36.6h-1.6l-1 .8H212c-.2 9.4-1.5 18.8-4.1 27.9m16 5.7c5.2-10.8 8-22.5 8-34.4m-8 34.4c-5.2-2.2-10.6-4.1-16-5.7m1.4 26.5a115 115 0 0 0-11.3-3.5m0 0c4-6.7 7.1-13.9 9.4-21.4m15.8 5.6c-5.2-2.2-10.4-4-15.8-5.6m1.9 25a79 79 0 0 0 13.9-19.4M107.5 121l7 3.4m0 0-2.9 6.8m-9.5 0h9.5m-4.1-10.2a75 75 0 0 0-5.4 10.2m31.7 0c3 .9 6.3 1.6 9.4 2.3m-3.8 3.8 3.8-3.8m-3.9 3.9-5.7-5.7.2-.4m94.7 0h9.5m-9.5 0c-.9-2.4-1.8-4.7-2.9-7 2.4-1 4.7-2 7-3.3m5.4 10.2a74 74 0 0 0-5.4-10.2m-119.2 10.2H132m-16-6.1-2.6 6.1m2.7-6.1c5.2 2.2 10.5 4.1 16 5.7m-.1.4.1-.4m94.5.4c-.7-2-1.6-4.1-2.6-6.1m-16 6.1h18.6m-18.6-.4v.4m0-.4c5.4-1.6 10.8-3.5 16-5.7m-17.6 6.6v-.5m-5.7 6.2 5.7-5.7m-9.6 1.8 4 3.9m-4-4c3.2-.6 6.4-1.3 9.5-2.2M125 101.9l4 1.7m0 0a80.8 80.8 0 0 0-13.8 19.2m-6.8-3.2a130 130 0 0 0 6.8 3.2m9.8-20.9c-6.5 5-12.1 11-16.6 17.7m35.5-28.2c-6.1 2.3-12 5.5-17.3 9.3m17.3-9.3c-5 3-9.5 6.7-13.6 10.8m-3.7-1.5c1.2.6 2.4 1 3.7 1.5m28.1-14.6-6 1.2m6-1.2a81 81 0 0 0-3.8 3.7m-5.2-1 5.2 1m-2.3-2.5-2.9 1.4m16.5-3.4-3 5.5m0 0-6.2-.7a74 74 0 0 1 5-4.5m4.2-.3c-1.4 0-2.9.1-4.3.3m8.4 5.5c1.8 0 3.6 0 5.4-.2m-10.7 0 5.3.2m-2-6-3.3 5.8m7.4-5.7h-.8l-.8-.1H168m7.4 5.8c-1-2-2.1-3.9-3.3-5.7m-19 6a86.6 86.6 0 0 0-10.2 13.5m-10.9-3.3c3.6 1.3 7.2 2.4 10.9 3.4m4.2-14.8c-5.5 3.1-10.6 7-15.1 11.4m15.1-11.4 6 1.3m30.3-1.2c-1.6-1.6-3.2-3-5-4.5m-1.1 5.2 6.1-.7m-6.1.7-3.1-5.5 4.3.3m6.4 6c4 4.2 7.5 8.7 10.5 13.6-3.6.8-7.3 1.5-11 2m0 0c-1.8-5-4-10-6.3-14.8m0 0c2.3-.2 4.6-.4 6.8-.8m-21 1 6.1.2m0 0 6.3-.2m6.3 14.8c-1.8-5-3.9-10-6.3-14.8m-18.8 14.8c8.3 1 16.8 1 25.1 0M163.8 94c-2.4 4.8-4.5 9.7-6.3 14.8M190.7 90l-3-1.4m-2.2 2.5 5.2-1m-5.2 1a81.2 81.2 0 0 0-3.8-3.7m6 1.2c-2-.5-4-1-6-1.2M145.4 131h4.4m-5.2.8.8-.8m-11.3-1.6c3.5 1 7 1.7 10.5 2.4m-1-23.8c-4 6.7-7.2 14-9.5 21.4m9.5-21.4c3.8 1 7.6 1.6 11.5 2.1m0 0c-2.3 6.9-4 13.8-5.3 21m-19.2-27c3.7 1.3 7.4 2.5 11.2 3.5m0 0c-4 6.7-7 13.9-9.3 21.3m-15.8-5.5c5.2 2.1 10.4 4 15.8 5.5m-2-24.9a78.8 78.8 0 0 0-13.8 19.3m27.8-16.8c3.7.8 7.4 1.5 11.1 2m-.5-15.6c-4 4.2-7.5 8.7-10.6 13.6M155.2 93c2.2.4 4.5.6 6.8.8m0 0c-2.4 4.8-4.5 9.7-6.2 14.8m57.7-8c-5.3-3.8-11.2-7-17.4-9.3 5 3 9.6 6.7 13.7 10.8m0 0c1.3-.4 2.5-1 3.7-1.5m11.3 22.1c2.4-1 4.7-2 7-3.3a74.3 74.3 0 0 0-16.7-17.6m9.7 21c-3.6-7.1-8.2-13.6-13.7-19.4m0 0 4-1.6m-17.9 4.4c3.7-1 7.3-2 10.9-3.4m-10.9 3.4c-3-4.9-6.4-9.4-10.3-13.5m0 0 6-1.3m15.2 11.4A75.2 75.2 0 0 0 193 91.4m-36.1 19c8.7 1.1 17.6 1.1 26.3 0m5.3 20.7c-1.3-7-3-13.9-5.3-20.6M151.6 131h36.9m-31.6-20.6a146 146 0 0 0-5.3 20.6m43 0 .8.8m-5.2-.8h4.4m-4.4 0c-1.3-7-3-14-5.3-20.9m0 0c3.9-.5 7.7-1.2 11.5-2m9.4 21.3a96.5 96.5 0 0 0-9.4-21.4m-1 23.8c3.5-.7 7-1.5 10.4-2.4m17.5-6a79 79 0 0 0-13.9-19.4m-1.9 25a136 136 0 0 0 15.8-5.6m-15.8 5.5a97.9 97.9 0 0 0-9.4-21.3m0 0c3.9-1 7.6-2.2 11.3-3.6m86.2 28.7h-88l-6.9 6.9-6.8-6.9m89.3 9.7 12.4-9.7m-28.5 9.7h16.1m-13.4-2.1-2.7 2m2.7-2h-77v1.7m72 0h-72m72 0-12.3 9.7h-9.7m3.4-2.7-3.4 2.7m3.4-2.7H193v1.7m48.3 0H193m36 9.7 12.3-9.7m-27.1 9.7h14.8m-11.3-2.7-3.5 2.7m3.5-2.7H193v1.7m0 0h19.6l-10.5 7.9H193v1.7m9.7 0h-9.7m17.4-5.8-7.7 5.8m3.7 20.5c2.5-8.6 3.8-17.4 4-26.3m-4 26.3c-4.4-1.2-8.9-2.2-13.4-3v1.8m13 2.9c-4.3-1.2-8.7-2.1-13-2.9m3.5 24.3a96 96 0 0 0 9.4-21.4m-9.4 21.4c-3.8-1-7.6-1.6-11.5-2.2m0 0c1.7-5 3.1-10.2 4.2-15.5m-1.7 0h1.7m-5.9 15.3c1.7-5 3-10.1 4.2-15.3m-4.2 15.3c-8.8-1-17.6-1-26.3 0m-4.2-15.3c1.1 5.2 2.5 10.3 4.2 15.3m-4.2-15.3h-1.8c1.2 5.3 2.6 10.4 4.3 15.5m0 0c-3.9.6-7.7 1.3-11.5 2.2m-9.5-21.4a95.7 95.7 0 0 0 9.5 21.4m3.5-24.3c-4.4.8-8.7 1.7-13 2.9m13-4.6v1.7m0-1.7c-4.5.7-9 1.7-13.4 3m-4-26.4c.2 8.9 1.5 17.7 4 26.3m3.7-20.5-7.7-5.8m17.4 5.8h-9.7m9.7-1.7v1.7m-9.1-1.7h9.1m-9.1 0-10.5-8h19.6m0-1.6v1.7m0-1.7h-24.8l3.6 2.7h-14.8l-12.4-9.7h48.4m0-1.7v1.7m0-1.7H94l3.4 2.7m-9.7 0h9.7m-9.7 0L75.3 142h72m0-1.7v1.7m0-1.7h-77l2 1.5m0 0 .7.6H56.9m0 0-12.4-9.7h88l6.8 6.9m6.9-6.9-6.9 6.9m54.6-6.9h-47.7M102.7 227c2.2 2.1 4.4 4.2 6.8 6.2m0 0-1.2 1.5m0 0-1-.8m0 0-.3-.2-.3-.3-.2-.1h-.2l-.1-.1h-.1m0 0h-.2l-.2.1-.2.2-.3.2-.2.3m0 0-7.5 9m0 0 2.4 2m0 0c.7.6 1.4 1 2.3 1.3m0 0 .2.1h.4l.2.1h.4l.2-.1h.3l.4-.3.3-.2.3-.2.6-.5.6-.6.7-.8m0 0 .2-.2 1.5 1.3m0 0-4.8 5.7m0 0-2-1.6-2-1.6-2-1.5-1.7-1.6-1.2-1-1-1-1-1-.7-.6-.5-.6m0 0 1.2-1.5m0 0 .8.7m0 0 .2.3.4.2.3.1H95.2l.3-.2.2-.3.2-.2m0 0 6.6-7.8m0 0 .2-.3.2-.3.1-.2.1-.2v-.2m0 0v-.2l-.2-.2-.4-.3-.4-.4m0 0-.7-.7m0 0 1.3-1.4m8.7 26.3v-.4l-.2-.4v-.9l-.1-.5v-1.6l.1-.4.2-.7.3-.7.3-.7.3-.7m5.5-4.6a8.7 8.7 0 0 0-5.5 4.6m5.5-4.6.6-.1.6-.1H121.2l.8.2.7.1.7.3.6.2.5.3.5.2m4.8 5.5a9.5 9.5 0 0 0-4.8-5.5m4.8 5.5.2.4v.4l.1.4v.4l.1.6v1.5l-.1.5-.2.7-.3.7-.3.7-.3.7m-5.5 4.5a8.8 8.8 0 0 0 5.5-4.5m-12.7 3.5c2.5 1.3 4.9 1.7 7.2 1m-7.2-1-.8-.5-.8-.6-.7-.5-.4-.4-.3-.3-.3-.3-.3-.4-.4-.6-.3-.6-.3-.6-.3-.7m58.8 19h-1.8m0 0-.8-1.5m-5.4 1.4a8 8 0 0 0 5.4-1.4m-11.2-1.4a8.2 8.2 0 0 0 5.8 2.8m-5.8-2.8-.4-.5-.3-.4-.3-.5-.2-.4-.2-.4-.2-.4-.1-.4-.2-.8-.2-.7v-.8l-.1-.8v-.7m0 0 .1-1 .2-.8.1-.5.2-.4.2-.5.2-.6.3-.5.4-.6.4-.6.5-.5.5-.5m6.2-2c-2.2-.2-4.5.5-6.2 2m11 .2a7 7 0 0 0-4.8-2.2m4.8 2.2.9-1.4m0 0 1.8.1m0 0-.5 6.7m0 0-2-.1m0 0a7 7 0 0 0-1.6-3.9c-.8-.9-2-1.4-3.2-1.5-1.4-.1-2.8.5-3.7 1.7m0 0-.3.4-.3.4-.3.5-.1.4-.2.4-.2.8-.2.8v.6l-.1.7c-.2 2.1.2 3.8 1 5l.2.3.2.3.2.2.2.2.4.3.3.2.4.2.6.2.6.1.6.1m0 0H164.6l.3-.2h.2l.3-.2h.2l.2-.2.2-.2.2-.2.3-.2.1-.3.2-.3.1-.3v-.4l.1-.3v-1m0 0v-1l-.1-.2m0 0h-.1l-.1-.1h-.2l-.4-.1h-.3l-.6-.1m0 0-1-.1m0 0v-2m0 0 9.2.7m0 0-.1 2-1.2-.2m0 0h-.8l-.2.1-.1.1m0 0-.1.2-.1.2v.3l-.1.3v.3m0 0-.5 5.8m6.3-.4c3.1-.2 6.2-.5 9.3-1m-9.3 1-.2-2m0 0h1.1m0-.1h.4l.4-.1.3-.1h.1l.1-.1.1-.1m0 0 .1-.2v-1.1m0 0-1-10.1m0 0v-.7l-.1-.3-.1-.2h-.1m0 0-.2-.2h-1.3m0 0h-1m0 0-.2-1.8m0 0 2.3-.2 1.6-.1 1.5-.2 1.6-.1 1.5-.2.7-.1m0 0 .2 1.9m0 0h-1.1m0 0-.4.1-.3.1h-.4v.2h-.2v.1m0 0-.2.2v1.1m0 0 1 10.1m0 0v.7l.1.3.1.2h.1m0 0 .1.1h.2l.1.1h2.1m0 0 .3 1.9m5.3-1c2.8-.4 5.5-1 8.3-1.8m-8.3 1.9-.5-1.9m0 0 1.1-.2m0 0 .3-.1.3-.1.2-.1.2-.1.2-.1.1-.2m0 0v-.2l.1-.2v-.6l-.2-.3-2.7-9.8m0 0v-.3l-.2-.3-.1-.3-.2-.2h-.1m0-.1H188.7l-.5.1m0 0-1.2.2-.5-1.8m0 0 7.3-1.6m0 0 10.6 10-2.4-8.8m0 0-.1-.3-.1-.3-.2-.3v-.2h-.2m0 0-.1-.1h-.8l-.5.2m0 0-1.2.4m0 0-.5-1.9m0 0c2.6-.8 5.1-1.7 7.7-2.7m0 0 .5 1.8m0 0-.8.3m0 0-.6.3h-.2l-.3.2h0l-.2.2m0 0v1l.1.4 3.7 13.3m-3.4 1.2 3.4-1.2m-3.4 1.2-12-11.2 2.8 10.1m0 0 .1.4.1.3.2.3.1.1.1.1m0 0h.2v.1H197.4l.4-.2m0 0 1.1-.3m0 0 .6 1.9m-70.1-3.8c2.6 1 5.3 2 8 2.8l.5-1.9m-8.5-.9.5-1.8m0 0 1.2.4h.3l.3.1h.8m0 0 .1-.1.2-.2.1-.2.1-.4.1-.3m0 0 3-9.7m0 0v-.3l.1-.4v-.6m0 0v-.1l-.2-.1h-.1l-.3-.2-.2-.1-.5-.2m0 0-1-.4m0 0 .5-1.9m0 0c2.3 1 4.6 1.8 7 2.5m0 0 3.7 14.1m0 0 2.6-8.7m0 0v-.3l.1-.3v-.7m0 0h0l-.2-.2h-.1l-.3-.2h-.2l-.5-.2-1.2-.3m0 0 .6-1.9m0 0c2.6.7 5.3 1.3 8 1.8m0 0-.6 1.9m0 0-.8-.2m0 0-.6-.1H150.9m0 0-.1.1-.2.2-.1.3-.1.3-.1.3-4 13.3m-3.5-.9 3.5.8m-3.5-.8-4.3-15.8m0 0-3 10v.4l-.1.3v.7m0 0 .1.1.1.1h.1l.3.2.4.2h.3m0 0 1.1.4m70-18.2.3-.2 2.2-1 1.4-.7 2.5-1.2 1.3-.7 1.3-.7 1.3-.7 1.2-.7 1-.6 1-.6.7-.5.7-.5m0 0 3.3 6m0 0-1.7 1m0 0-.5-.9-.3-.3-.3-.4-.2-.3-.3-.3-.3-.2-.4-.2-.3-.2m0 0c-.8-.2-2 0-3.6.9m0 0-3.7 2m0 0 2.4 4.3.9-.5m0 0 .4-.2.3-.2.3-.2.2-.3.2-.1v-.2l.1-.1v-.2m0 0v-.1l.1-.2v-.4l-.1-.4-.2-.3-.2-.6-.2-.5m0 0 1.7-1m0 0 4.2 7.7m0 0-1.8.9-.3-.5-.3-.5-.2-.2-.3-.3-.3-.2-.3-.2m0 0c-.7-.3-1.6-.3-2.3 0m0 0-1 .6m0 0 3.1 5.5m0 0 4-2.1m0 0 .3-.2.4-.2.4-.3.3-.4.3-.3.3-.3.1-.4.1-.3m0 0v-1l-.1-.4-.1-.5-.2-.5-.4-1-.4-1.1m0 0 1.7-1m0 0 3.5 6.4m0 0-1.8 1.2-1.8 1-1.9 1.1-1.3.8-1.4.7-1.6.9-1.6.7-1.4.7-2.1 1h0m0 0-1-1.7m0 0 1-.4.3-.2.2-.2h.2l.1-.2.2-.2v-.8l-.2-.3-.1-.3m0 0-4.9-9m0 0-.2-.3-.2-.2-.1-.3h-.2l-.2-.2m0 0h0-.4l-.3.2h-.2l-.4.3m0 0-1 .4m0 0-.9-1.7m31 2-1.4 1m0 0-4.6-5.4m0 0 1.6-1.3m0 0 .6.5.6.4.6.4.4.1.3.1.3.1.4.1.6.1h1.3l.6-.2.6-.3.5-.2.5-.4.5-.3m0 0 .3-.3.3-.3.3-.3.3-.4.3-.4.2-.4V240.6l-.1-.2v-.2l-.3-.3m0 0-.2-.2-.2-.1-.2-.2-.3-.2H241.2l-.6.2-.5.2-.5.2m0 0-2.6 1.3m-4.5 1.3c1.2 0 2.7-.4 4.5-1.3m-4.5 1.3h-.5l-.5-.1-.5-.2-.5-.3-.4-.3-.3-.3-.4-.4m0 0-.4-.5-.2-.3-.1-.3-.2-.4-.2-.4v-.4l-.1-.6v-1.1m2.5-4a6.6 6.6 0 0 0-2.5 4m7.5-5.9c-1.8 0-3.6.7-5 1.9m5-1.9-.1-1.5 1.2-1 4.2 5m0 0-1.5 1.2m0 0a6.3 6.3 0 0 0-3.8-1.6 5 5 0 0 0-3.5 1.3m0 0-.3.2-.3.3-.3.4-.3.3-.2.4-.1.4v1.1l.2.4.2.3.1.1.2.2.2.1.3.2H233l.5-.1.4-.2.5-.2m0 0 3.1-1.7m0 0 1-.4.4-.2.5-.1.6-.2.6-.1.6-.1h1.2l.6.2.5.2.5.3.5.3.3.3.4.4m1.2 4.2a5 5 0 0 0-1.2-4.2m1.2 4.2-.1.5-.1.4-.2.5-.2.3-.1.3-.4.6-.4.6-.5.5-.6.5m0 0-.5.4-.6.4-.7.3-.6.3-.5.1-.5.2h-.4l-.5.2h-.7l-.7.1m0 0 .6 1.6M145.2 20.5l-1.3.2m0 0-3.8-10m0 0 1.2-.2m0 0 3 8.5m0 0 .4-9 1.4-.3m0 0 3.2 8.4m0 0 .2-9m0 0 1.1-.1m0 0-.5 10.7m0 0-1.2.2-3.2-8.2m0 0-.5 8.8m9.3-1.3-1.2.1m0 0L152.2 9m0 0 1.2-.1m0 0 1.1 10.4m28.6-.3H182m0 0 .6-10m0 0-3.2 9.8m0 0-1.1-.1-1.9-10m0 0-.6 9.8m0 0h-1.1m0 0 .6-10.5m0 0 2 .1m0 0 1.6 9m0 0 3-8.7m0 0 1.8.1m0 0-.6 10.5m5.2-10L184.2 19l1.2.1 1.1-2.9 3.3.4M188.3 9l1.5.2m0 0 1.6 10.8m0 0-1.2-.2m0 0-.4-3m10.5 4.8 5.1 1.2.3-1-4-1 .9-3.7 3.6.8.3-1m-6.2 4.7 2.4-10.2m0 0 5 1.2-.2 1-4-.8m0 0-.7 3.2m0 0 3.7.9m-72.1 3-.1-.4m0 0 1-.3m0 0 .2.4m0 0 .1.5.1.2.1.2.1.2.2.2.2.2h.2l.3.2h1.1l.4-.2h.1l.2-.1.2-.2.1-.1.2-.2v-.2l.2-.3v-1.1m0 0c-.1-.4-.3-.7-.6-1m0 0-.2-.1-.3-.1-.2-.1-.4-.1h-.4m0 0-.8-.2m-1.6-.3c.5.2 1 .3 1.6.3m-1.6-.3-.2-.1-.2-.2-.2-.1-.1-.2-.2-.2-.1-.2-.1-.2-.1-.2-.2-.5m0 0v-1.5l.1-.4.2-.4.3-.3.3-.3.3-.3.5-.2.5-.1m0 0h.4l.5-.1h.4l.4.2.4.1m1.1 1.8c0-.7-.5-1.4-1.1-1.8m1.1 1.8v.3l-1 .2m0 0h0m0-.1-.1-.4-.2-.4V13l-.2-.2h-.1l-.2-.2h-.1l-.2-.1H135.4l-.3.3h-.2l-.1.2-.1.1-.1.2v.1l-.1.2-.1.4v.5m0 0c.1.4.3.8.6 1m0 0 .2.2.3.1.3.1h.4l.4.1m0 0 .4.1m0 0 1 .1.3.1.4.1h.2l.2.1m0 0 .3.3.3.3.3.4v.2l.2.2.1.5.1.6v1.3l-.2.2v.2l-.2.2v.2l-.2.2-.2.1-.2.2-.2.1-.2.2-.5.2-.5.1m0 0-.6.1h-1l-.2-.1h-.2l-.2-.2h-.2l-.2-.2-.1-.2-.2-.2-.1-.2-.2-.2-.1-.2-.2-.5-.2-.6m21.5-3.7v-.3m0 0 1.1-.1m0 0v.4m0 0 .1.5.1.2v.2l.2.2v.2l.3.2.2.2.3.2h1m0 0h.7l.2-.2.2-.2.2-.1.2-.2v-.3l.1-.2v-.2l.1-.3V16m0 0c0-.4-.1-.8-.4-1.1m0 0-.2-.2-.2-.1-.3-.2-.3-.1-.4-.1m0 0-.7-.2m-1.6-.6 1.6.5m-1.6-.5-.4-.3-.1-.2-.1-.2-.1-.2-.1-.2-.1-.3v-.2l-.2-.5v-1l.2-.4.2-.5.2-.3.4-.3.3-.3.4-.1.5-.2h1.4l.4.1.4.2.3.2c.6.5.9 1.2 1 2m0 0v.2m0 0h-1.1m0 0h0m0 0-.1-.4-.1-.4-.1-.2-.1-.2-.1-.1-.2-.1-.1-.1-.1-.1h-.2l-.2-.1h-.6m0 0h-.3l-.4.1-.2.1-.1.1-.1.1-.2.2v.1l-.1.2-.1.3v.6m0 0c0 .4 0 .8.3 1.1m0 0 .2.2.3.1.2.1.4.2.4.1m0 0 .4.1.9.3.4.1.3.2h.2l.2.2m0 0 .3.3.3.3.1.4.1.3v.2l.1.5m0 0V17l-.1.2-.1.2-.2.2v.2l-.2.2-.2.2-.1.1-.2.2-.3.1-.2.1-.2.1-.5.1-.6.1h-1.2l-.3-.2h-.2l-.2-.2h-.2l-.1-.2-.2-.2-.1-.2-.2-.2v-.2l-.2-.2V17l-.2-.5V16m7.7-.9v.9l.2.6v.2l.1.3.1.2.2.2v.2l.2.2.2.1.2.2h.2l.2.2h.2l.2.1.5.1h.6m-3-3.5h1v.4m0 0 .1.5v.2l.1.3.1.2.1.2.2.2.2.2.3.1.3.1h.3l.4.1h.4l.2-.1h.2l.2-.2h.1l.2-.2.2-.2.1-.3v-.1l.1-.2v-.4l.1-.3m0 0c0-.4-.1-.8-.3-1.1m0 0-.2-.2-.2-.2-.3-.1-.3-.2-.4-.1-.7-.3m-1.6-.6c.5.3 1 .5 1.6.6m-1.6-.6-.2-.2-.1-.1-.2-.2V12l-.2-.2v-.2l-.1-.3v-.2l-.1-.6m0 0v-.9l.2-.5.1-.2.1-.2.3-.3.3-.3.4-.2.4-.2.5-.1h1.4l.4.2.4.2.3.2.3.3.2.4.2.4v.9m0 0v.2m0 0h-1m0 0v0m0 0V10l-.1-.3-.1-.2-.1-.2-.1-.1-.1-.1-.2-.2h-.1l-.2-.1h-.1l-.3-.1h-.3m0 0h-.4l-.4.1h-.1l-.2.2-.2.2-.2.3-.2.3v.6m0 0c0 .4 0 .8.3 1.2m0 0 .2.1.2.2.3.1.3.2.4.1m0 0 .4.1 1 .4.3.1.4.2h.1l.2.2m0 0 .3.3.2.4.2.4v.5l.1.5m0 0v1.1l-.1.2-.1.3-.1.2-.2.2v.2l-.2.2-.2.1-.2.2-.2.1-.2.1-.2.1h-.3l-.5.2h-.5m28.4 2-2.7-.5m0 0 2-10.4m0 0 2.9.6m0 0h.3l.3.1.3.1.3.2.3.2.3.2.2.3.2.3.2.4.1.4.1.3v2.9m0 0-.2.7-.2.6-.1.5-.2.5-.2.5-.2.4-.3.5-.3.4-.4.4-.2.1-.2.1-.3.1-.3.1H195M17.7 177.3l-.1-1.2 10.8 1.5m0 0 .2 1.5m0 0-10.1 4.2m0 0-.2-1.1m0 0 3-1.2m0 0-.5-3.3-3-.4m1.9 12.6-1-5.3m0 0 10.4-1.8m0 0 .2 1.1m0 0-9.2 1.7m0 0 .7 4.1m0 0-1.1.2m1.5 6.7-1.2-5.2m0 0 10.3-2.3m0 0 .2 1.1m0 0-9.1 2.1m0 0 1 4.1m0 0-1.2.3m4.7 15.3-.4-1.1 9-3.2m0 0-1-2.6m0 0 1-.3m0 0 2.2 6-1 .4-.9-2.4m0 0-8.9 3.2m1.2 3.1-.5-1 10.9-1.4m0 0 .5 1.4m0 0-8.6 6.6m0 0-.5-1m0 0 2.6-2m0 0-1.3-3m0 0-3.1.4m3.4 8-.5-1m0 0 9.6-4.4m0 0 .5 1m0 .1-9.6 4.3m1.4 3-.5-1m0 0 9.4-4.7m0 0 .7 1.4m0 0L35 229m0 0 8-4m0 0 .6 1m0 0-9.4 4.6m0 0-.7-1.3m0 0 6.7-7.5m0 0-8.3 4.3m5.9 11-2.6-4.6m0 0 9.2-5.2m0 0 .5 1m0 0-8.2 4.6m0 0 2 3.7m0 0-1 .5m3.7 5.8-2.8-4.4m0 0 9-5.6 2.7 4.4-1 .6m0 0-2-3.4m0 0-3 1.8m0 0 2 3.2m0 0-.9.5m0 0-2-3.2m0 0-3.3 2m0 0 2.2 3.5m0 0-1 .6m20.3 25-.8-.9m0 0 6.7-6.6m0 0-2-2m0 0 .8-.7m0 0 4.6 4.6m0 0-.8.7m0 0-1.8-1.8m0 0-6.7 6.7m6.7 6.2-4-3.5m0 0 7.2-7.7 3.8 3.5m0 0-.7.8m0 0-3-2.8m0 0-2.3 2.5 2.8 2.6-.7.8m0 0-2.8-2.6m0 0-2.6 2.9m0 0 3 2.7m0 0-.8.8m5.5 4.6-4-3.3m0 0 6.7-8m0 0 4 3.3m0 0-.7.8m0 0-3-2.6m0 0-2.3 2.6m0 0 3 2.4m0 0-.7.8m0 0-3-2.4m0 0-2.4 3 3.1 2.6m0 0-.7.8m5.7 4.4-4.2-3.2m0 0 6.3-8.4m0 0 1 .7m0 0-5.7 7.5m0 0 3.3 2.5m0 0-.7 1m-54-82.6.3-.1m0 0 .3 1m0 0-.4.2m0 0-.4.1-.3.1-.2.2-.1.1-.2.2-.2.2v.3l-.2.3v.6l.1.4m0 0 .2.3.1.2.1.2.2.1.1.2.2.1h.3l.2.2h.7l.4-.1m0 0c.4-.1.7-.4 1-.7m0 0v-.2l.2-.2v-.3l.1-.4v-.4m0 0 .1-.8m.2-1.6-.2 1.6m.2-1.6.2-.4.2-.2.1-.2.2-.1.2-.2.2-.1.2-.1.5-.2m0 0 .5-.1H32l.4.2.4.2.3.3.3.4.2.4.2.5v.5l.1.4v.8l-.2.4c-.4.6-1 1.1-1.7 1.3m0 0h-.3m0 0-.3-1m0 0h.1m0 0 .4-.2.4-.2h.1l.1-.2.2-.1v-.2l.1-.2V202.3l.1-.2v-.5l-.2-.4-.2-.3-.2-.2h-.1l-.3-.3h-.3l-.4-.1h-.5m0 .1c-.4 0-.8.3-1 .6m0 0-.2.2v.3l-.1.3v.4l-.1.8-.1 1v.4l-.1.4v.1l-.1.2m0 0-.3.4-.2.3-.4.3-.4.2-.5.2m0 0-.6.1H25l-.2-.1-.4-.2-.2-.2-.2-.1-.2-.2-.1-.2-.2-.2-.2-.5-.2-.5m0 0-.1-.5v-1.4l.1-.2.1-.2.2-.2.1-.2.2-.2.2-.1.2-.2.2-.1.5-.3.5-.1m19.4 42 .3-.2m0 0 .7 1-.4.1-.4.3-.1.2-.2.2-.1.2-.1.2-.1.3V245.9l.2.3.2.3m0 0 .2.3.2.1.2.2h.1l.2.1.3.1H46.8l.3-.2.3-.2m0 0c.3-.2.6-.5.7-.9m0 0v-1.6m0 0-.3-.7m-.3-1.7c0 .6.2 1.1.3 1.7m-.3-1.7v-.2l.1-.2.1-.2.1-.2.1-.2.1-.2.2-.2.2-.2.4-.3m0 0 .4-.3.5-.2.4-.1h.9l.4.1.4.2.4.2.3.4.3.4m0 0 .3.4.2.4.1.4v.8m-1.2 1.7c.6-.3 1-1 1.2-1.7m-1.2 1.7-.2.2m0 0-.6-.9m0 0h0m0 0 .4-.3.2-.3.1-.2.1-.1.1-.2V241.9l-.1-.3-.2-.3m0 0-.2-.3-.3-.2-.2-.1h-.1l-.2-.1H50l-.2.1-.3.2m0 0c-.3.2-.6.5-.8.9m0 0V243l.2.4m0 0v.4m0 0 .3 1v.3l.1.4v.8l-.2.4-.3.4-.2.1-.1.2-.5.3m0 0-.4.3-.5.2-.3.1h-.2l-.3.1H45.5l-.2-.1-.2-.1-.2-.2h-.2l-.2-.2-.4-.4-.3-.4m0 0-.3-.5-.2-.4-.1-.3V244.5l.1-.2.1-.3.1-.2.2-.2.2-.2.4-.4.4-.3m4.5 6.4.3-.2.7.9-.3.2m0 0-.4.3-.2.2-.1.2-.1.2-.1.2v.3l-.1.3v.3l.1.3.2.3.2.3m0 0 .3.3.1.1.2.1.2.1h.1l.3.1h.7l.2-.1.3-.1.3-.2m0 0c.3-.3.6-.6.7-1m0 0v-.8l-.1-.4-.1-.4m0 0-.2-.7m-.4-1.6c0 .6.2 1.1.4 1.6m-.4-1.6v-.5l.1-.2.1-.2.1-.2.1-.2.2-.2.2-.2.4-.3m0 0 .4-.3.4-.2.5-.2h1.3l.4.2.3.3.4.3.3.4m0 0 .3.3.2.4.1.5.1.4v.8l-.2.4-.3.3-.3.4-.3.3m0 0-.2.1-.7-.8m0 0v-.1m0 0 .4-.3.3-.3v-.2l.1-.1v-.2l.1-.2v-.6l-.2-.3-.2-.2m0 0-.2-.3-.3-.3h-.2l-.2-.1h-1l-.3.1-.2.2m0 0c-.3.2-.6.6-.7 1m0 0V249.2l.2.4m0 0 .1.4m0 0 .3.9.1.4v.4l.1.1v.3m0 0v.4l-.2.4-.3.3-.3.4-.4.4m0 0-.5.3-.4.2-.3.1h-.2l-.3.1H50.1l-.2-.2h-.3l-.2-.2-.2-.1-.4-.4-.3-.4m0 0-.3-.4-.3-.5v-.2l-.1-.3v-1.3l.2-.2.1-.2.1-.2.2-.2.4-.4.4-.4m7 8.8.3-.2m0 0 .8.8-.3.2m0 0-.4.4-.1.2-.2.2v.2l-.1.2v1.2l.3.3.2.2m0 0 .3.3.2.1.1.1.2.1h.2l.3.1h.5l.2-.1.2-.1.2-.2.3-.2m0 0c.3-.2.6-.6.7-1m0 0v-.5l-.1-.3-.1-.3-.2-.4m0 0-.2-.7m-.6-1.6.6 1.6m-.6-1.6v-.5l.1-.2.1-.2.1-.3.1-.2.1-.2.2-.2.4-.3m0 0 .4-.3.4-.3.4-.2h.5l.4-.1h.4l.4.2.4.2.4.3.4.3m0 0 .3.4.2.4.2.4v.8m0 0v.4l-.1.4-.2.4-.3.3-.3.4m0 0-.2.1-.7-.8m0 0h0m0 0 .3-.3.3-.4v-.1l.1-.2v-1l-.2-.3-.2-.2m0 0-.3-.3-.3-.2h-.2l-.1-.1H61.7l-.4.1-.2.2-.2.1m0 0c-.4.3-.6.6-.7 1m0 0v.6l.1.3.1.3.2.4m0 0 .1.4m0 0 .3.9.2.4v.3l.1.2v.3m0 0V261l-.1.2-.2.4-.3.4-.4.3m0 0-.4.4-.5.3h-.2l-.3.2h-1.6l-.2-.1-.3-.1-.2-.2-.4-.3-.4-.4m0 0-.3-.4-.3-.4v-.2l-.1-.3-.1-.2V259.6l.1-.2.1-.3.2-.2.1-.2.3-.4.4-.4M169 313.2h-1.2m0 0 .2-10.5m0 0h1.2m0 0-.2 10.5m11.7-.3h-1.2m0 0-.7-10.4h1.2l.7 10.4m5.2-.5-1.2.2m0 0-1-9.4m0 0-2.6.3m0 0-.1-1.1m0 0 6.3-.6m0 0 .1 1m0 0-2.5.3 1 9.3m-33.5-3.1v-.4m0 0 1.2.1m0 0v.4m0 0v1.2l.1.2.2.3.2.2.2.2h.3l.3.2H156.3l.2-.2.2-.1.2-.2.1-.2.1-.2.1-.2.1-.3v-.3m0 0c.1-.4 0-.8-.1-1.2m0 0-.2-.2-.2-.2-.2-.1-.4-.2-.3-.2m0 0-.7-.4m0 0-1.5-.8-.1-.2-.1-.2-.2-.2v-.2l-.1-.2v-.2l-.1-.3v-.7m0 0v-.5l.2-.5.2-.4.2-.4.3-.3.4-.2.4-.2.4-.1h1m0 0h.5l.4.1.4.2.4.3.2.2.3.4.1.3.2.5v.9m0 0v.2h-1.1m0 0v-1l-.1-.2v-.1l-.2-.2v-.1l-.2-.2h-.1l-.2-.2h-.1l-.3-.1h-.3m0 0h-.9l-.2.1-.2.1-.1.1-.1.1-.1.2-.2.3v.3l-.1.3m0 0c0 .4 0 .8.2 1.1m0 0 .1.2.3.2.2.2.3.2.4.2.4.2.8.4.4.2.3.2h.2l.1.2m0 0 .3.4.2.4v.4l.1.5v.5m0 0v.6l-.2.5-.1.2-.1.2-.2.2-.1.2-.2.2-.1.1-.2.2-.2.1-.2.1-.3.1h-.2l-.3.1h-1m0 0h-.5l-.5-.2h-.3l-.2-.2-.2-.1-.2-.1-.1-.2-.1-.2-.2-.1v-.2l-.2-.3v-.2l-.1-.3v-1.3m8.9 3.7h-1.2m0 0 .5-10.5m0 0 2.7.1m0 0h.8l.4.2h.3l.3.2.3.1.2.2.2.1.1.2.1.1.2.2v.2l.1.3v.2l.1.2V305.7m0 0v.5l-.1.6-.1.2-.1.3-.1.2-.2.2-.2.2-.2.2-.3.2h-.2l-.2.2h-.3l-.2.1H163m0 0h-1.5m0 0-.2 4.4m9.4-10.2.2 10.5h1.2l-.1-4.7m-1.3-5.8 3-.1m0 0h1.1l.3.1.3.1.3.2.3.2.2.1.1.2.2.2v.1l.2.4.2.5v.5m0 0v.8l-.1.2v.2l-.2.2-.1.3-.2.2-.2.2-.2.1-.2.1-.3.2-.4.1m0 0h.4l.2.1.2.1h.2l.1.2h.2l.1.2.1.2.1.2.2.3v.4l.1.4m0 0 .1 1m0 0v.5l.2.5v.3l.1.3.1.2.1.2h.1m0 0-1.4.1m0 0h0l-.2-.4v-.4l-.1-.4v-.5m0 0-.2-1m0 0v-.6l-.1-.2-.1-.3-.2-.2v-.1l-.2-.2h-.2l-.1-.1h-.2l-.2-.1H173.6m0 0H172m103-37.1-1 .8m0 0-5.2-5.7m0 0-1.6 1.5-.6-.6m0 0v-.1m0 0 .4-.4.2-.2.1-.2.1-.2.1-.2V265l-.3-.3-.2-.3m0 0 .7-.6m0 0 7.2 7.7m-1.2-6a9.5 9.5 0 0 0 3.5 2.4m-3.5-2.5-.5-.5-.5-.5-.3-.4-.4-.5-.3-.4-.2-.5-.2-.3v-.2m0 0-.2-.4v-.6l.1-.4.2-.4.2-.3.3-.3m0 0 .3-.3.3-.2.3-.2h.3l.4-.1h.7l.3.1m0 0 .2.1.3.1.3.2.3.1.5.5.6.4.5.5.5.5m0 0 .5.5.5.5.4.4.3.5.4.4.2.5.1.3.2.2m0 0V266.1l-.1.3-.2.3-.2.2-.2.2m0 0-.3.3-.3.3-.4.1-.4.1h-1m6-4.9-.6.8m0 0-7.9-7m0 0 .7-.8m0 0 2.6 2.3m0 0v-.2l-.1-.3v-.5l.1-.3.1-.3.2-.2.1-.1m0 0 .2-.2.1-.1.2-.2h.2l.2-.1.2-.1h1.1l.3.1.5.2.4.3.6.4.5.4m0 0 .4.4.4.3.3.4.2.3.3.4.2.3.1.3.1.2v.3l.1.2V261l-.1.2-.2.3-.2.2m0 0-.2.3-.3.1-.2.2h-.3l-.3.1h-.5l-.2-.1m0 0 .8.6m6.5-9 .6.5m-.3.6.3-.6m-.3.6-.1.1-.2.1-.1.1h-.8l-.2-.1-.1-.1m-.2 2.2c.5-.6.6-1.5.2-2.2m-.2 2.2-.2.2-.1.1-.2.1-.3.2h-1.2l-.2-.2-.4-.1-.3-.3m0 0-.3-.3-.2-.2-.1-.2-.1-.1-.1-.2-.1-.3m0 0V255l.2-.5.2-.5m0 0h0l.1-.4.1-.3V252.7h0v-.2h-.2l-.5-.5m0 0-.2-.1-.2-.1h0-.4 0-.2l-.2.2-.1.1-.2.2m0 0-.1.2-.1.2v.1l-.1.2v.5l.2.2.2.1.1.2m0 0h.2m0 0-.7.9m0 0-.4-.4-.2-.2-.1-.2-.1-.2-.1-.3v-1.1l.1-.2.2-.2.3-.5m0 0 .3-.4.2-.1.2-.2h.2l.2-.2h1l.3.2.2.1.4.3m0 0 3.6 2.9m0 0 .2.1h.4v-.1m0 0 .2-.1h0m2-1.4-.6.8m0 0-6.3-4.7m0 0 .6-.8m0 0 1 .8m0 0-.1-.3-.2-.4v-1.3l.2-.2v-.2m0 0 .4-.3m0 0 1 .7m0 0a1 1 0 0 0-.4.3m0 0-.1.1-.1.2-.1.3v1l.1.2.3.4.2.2.3.3m0 0 3.8 2.9m8.5-6.7-.4.7c-1.3 0-2.6-.2-3.9-.6m-3-1.4c1 .6 2 1 3 1.4m-7.4-7c.8 2.3 2.4 4.2 4.4 5.6m-4.4-5.6.4-.7m0 0c.5 1 1 2 1.8 2.8m0 0c.8 1 1.8 1.8 2.8 2.4m0 0 1 .7.6.3.5.2.6.3.7.3.6.2m0 0 2.7.4m0-5.7-.6 1-6.5-4.1m0 0L292 239m0 0-.8-.5m0 0v-.1m0 0 .3-.5.1-.2.1-.3v-1l-.1-.3-.2-.2-.3-.3-.3-.2m0 0 .5-.8 9 5.6m-2.7-5.5c1.7 1 3 1.4 4 1.4m-4-1.4-.6-.4-.6-.4-.5-.3-.4-.3-.5-.4-.3-.3-.3-.3-.1-.2m0 0-.2-.3-.1-.3v-1.4l.2-.3v-.2l.3-.3.2-.3.3-.2.3-.2.3-.2h.4l.3-.1h.3m0 0h.6l.3.1.3.1.7.3.6.2.6.4.7.3m0 0 .6.4.6.4.5.3.4.3.5.4.3.3.2.3.2.2m0 0 .2.4.1.3v1.1l-.1.4-.2.3m0 0-.1.2-.2.3-.2.2-.3.2-.3.2-.3.1-.3.1h-.4m-.6-7.6c1.8 1 3.1 1.4 4 1.3m-4-1.3-.7-.3-.6-.3-.5-.3-.4-.3-.5-.4-.3-.3-.3-.3-.1-.2m0 0-.2-.3-.2-.4v-1.1l.1-.3.2-.4.1-.3.3-.3.2-.3.3-.2.4-.1.3-.1h.6m0 0h1.2l.7.3.6.3.7.3.6.3m0 0 .7.3.6.4.5.3.4.3.5.3.4.4.2.2.2.2m0 0 .2.3.1.3.1.4v1l-.2.2v.3m0 0-.2.2-.2.3-.2.3-.3.2-.2.2-.4.1-.3.1h-.3m4.3-6.6-.4 1m0 0-7.3-3m0 0 .4-1m0 0 1 .4m-.3-2.4c-.4.8-.3 1.7.2 2.4m-.2-2.4.1-.2.1-.2.2-.2.1-.1.3-.2.2-.1h.7m0 0c-.5-.7-.6-1.6-.2-2.4l.2-.4.1-.2.1-.2.2-.1.1-.1.3-.1.2-.1h1l.3.1 5.6 2.4m0 0-.4 1m0 0-5-2m0 0-.5-.2-.3-.1h-.5m0 0a1 1 0 0 0-.6.6c-.4.8 0 1.7.7 2l.1.1m0 0 5 2.2m0 0-.4 1m0 0-5-2.2m0 0h-.4l-.3-.2H304.3l-.3.1-.1.2-.2.2v.2m0 0c-.4.7-.1 1.6.6 2h.1m0 0 5.1 2.2m2.5-13.2h0m0 0 .3-1 .3.1.3.2.4.2.3.2.3.3.2.3.2.3V212l-.1.4-.1.2-.1.3-.1.2-.2.1-.2.2-.2.2-.3.1h-.2l-.2.2h-1.3l-.4-.1-.3-.1-.6-.1-.5-.2-.5-.2-.6-.3-.3-.1-.3-.2-.4-.3-.3-.2-.2-.2-.2-.2-.2-.2-.1-.3-.1-.3V209.5m0 0 .3-.4v-.2l.2-.2.2-.1.1-.2h.2l.1-.2.4-.1h.4l.4-.1h.7l.6.2.6.2m0 0 .7.3m0 0-1.3 3.5m0 0 .3.1.5.2.5.1.4.1h1l.3-.1.2-.2.1-.2.1-.3m0 0 .1-.2v-.6l-.3-.3-.2-.2-.3-.2-.3-.2h-.3M309 205l5 1.7m0 0c.3 0 .5.1.8 0m0 0 .1-.2h0l.2-.3v-.2m0 0 .1-.3m0 0 1 .3m0 0-.1.3m0 0-.2.5m0 0v.3l-.2.2-.1.2-.2.2-.2.1-.2.1h-.7l-5.6-1.8-.4 1m0 0-.8-.3m0 0 .3-1m0 0-2-.7m0 0 .4-1m0 0 2 .7m0 0 .4-1.3.8.3-.4 1.2m5.9-4.2h0m0 0 .2-1m0 0h.3l.3.1.4.2.3.3.3.2.3.3.2.4v.3l.1.4v.4l-.1.4m0 0v.3l-.2.2v.2l-.2.2-.2.2-.2.1-.3.2h-.2l-.2.2h-2l-.6-.2-.5-.1-.6-.2-.5-.2-.4-.1-.3-.2-.4-.2-.4-.2-.1-.2-.2-.2-.2-.2-.2-.3v-.2l-.2-.3V200.7l.1-.2.2-.4v-.2l.2-.2.1-.2.2-.1.1-.1.2-.1.2-.1.2-.1.4-.1h1.4l.4.1.5.2m0 0 .6.2m0 0-1 3.6m0 0h.3m0 0 .5.2.5.1H315.7l.3-.1.2-.2.1-.2.1-.3m0 0v-.8l-.3-.3-.2-.2-.3-.2-.3-.1-.3-.1m3.4-3-.3 1.1m0 0-7.6-1.9m0 0 .3-1m0 0 1.2.3m0 0-.3-.2-.2-.2-.2-.3-.2-.3v-.3l-.1-.3v-.5m.2-.4-.2.4m.2-.4 1.1.3m0 0-.2.4m0 0V195.4l.1.2.1.2.1.1.1.2.2.1.4.3h.3l.4.2m0 0 4.6 1.2m3.8-2.8c-.9-.9-1.9-1.7-3-2.3m3 2.3-.1.8m0 0-2.2-1.6m0 0-.6-.4-.6-.3-.7-.2-.5-.2-.6-.2-1.2-.3m0 0c-1.2-.3-2.4-.4-3.7-.4m0 0c-1 0-2.2.3-3.2.7m0 0 .2-.8m7-.7c-2.3-.5-4.8-.3-7 .7m10.2.6c-1-.6-2-1-3.2-1.3m-124.9 1.8H149m0 0v-56.7h42.2m0 0v56.7m-71.5 51-.4.2-.5.3-.3.3-.3.2-.3.3-.6.6-.5.6-.4.7-.4.7c-1 2-1.5 3.7-1.3 5.2m9.4-8.8-.3-.1-.3-.2-.4-.1-.3-.1-.5-.1h-1.4l-.6.1-.6.2m7 3.8a4.8 4.8 0 0 0-2.6-3.5m1.4 8.8.4-.9.4-.8.1-.5.2-.4.1-.6v-.5l.1-.6v-1m-5 9.1c1.4-.6 2.6-1.9 3.7-3.8m-8.1 3.6.3.1.3.2h.3l.4.2h.4l.5.1h1l.6-.2.6-.2m-7-3.8a4.8 4.8 0 0 0 2.6 3.6M189 10l-2.1 5.2m2-5.3.8 5.7-2.8-.4m8.4-4.2-1.5 8.3m3-8-1.5-.3m3.3 1.4-.2-.2-.1-.3-.2-.1-.2-.2h-.2l-.2-.2h-.3l-.4-.2m1.7 4.6.1-.7v-.7l.1-.7v-1.1l-.1-.2m-1.5 6.8.3-.2.2-.4.2-.3.1-.3.1-.3.2-.6.2-.6v-.7m-1.3 3.4-.2.3h-.3l-.2.1h-1.1l-1.5-.3M27.6 178.6l-5.7-.7.4 2.8m0 0 5.3-2.1m4.7 38.6 4.6-3.4-5.6.8 1 2.6m129.5 86.3-.2 4 1.6.1m-1.4-4h1.9l.4.1h.2l.2.2h.2l.2.3.2.1v.2l.1.2.1.2v.7m-.5 1.6.2-.2.1-.3.1-.3.1-.4v-.4m-2.1 2h.8l.3-.1.2-.1.3-.2m7.1-3.4.1 3.8m0-3.8H174.7l.3.2.2.1.1.2.1.2.1.1.1.3v.2l.1.4m-2.3 2h.8l.3-.1.2-.1.2-.1.3-.2.2-.2.1-.3.1-.2v-.3l.1-.2v-.3m-3.8 2h1.5m99-45.6v.2l.3.3.3.4.3.5.6.6.7.6c1.2 1.2 2.1 2 2.7 2.2m-4.7-6.3c-.4.4-.5 1-.3 1.5m1.8-1.8c-.5-.3-1.1-.2-1.5.3m1.5-.3.4.2.6.4.5.4.6.5.7.6.6.7.7.7.3.4.3.4.2.3.2.3c.2.5.1 1-.3 1.4m-1.6.3c.5.3 1.2.2 1.6-.2m0-9.3-.1.3-.1.2v1l.3.3.4.5.2.3.7.6m2-2.3-.6-.5-.6-.3-.2-.2-.3-.1-.3-.1-.3-.1h-.6l-.2.2-.2.2m4.6 4.1.2-.2.1-.2v-.8l-.1-.2-.2-.4-.3-.3-.4-.4-.3-.4-.4-.3m-2 2.3.7.5.4.3.3.2.4.2.3.1H283.3l.2-.2.3-.2m3.6-7.1-1.3-1m1.2 1 .3.2.2.3.2.3.2.3V256.1l-.1.2-.2.3h-.1l-.2.2h-.2l-.2.1h-.4l-.1-.1-.2-.1-.2-.1m-.6-.8c.1.3.3.6.6.8m-.4-2a2 2 0 0 0-.2 1.2m.2-1.3v.1m0-.1c.2-.4.2-.8.2-1.3m9.3-21.5.2.2.3.3.4.3.4.3.8.4.8.5m-3-3.5c-.3.5-.3 1 .1 1.5m1.3-2.2c-.6 0-1.2.2-1.4.7m1.4-.7.4.1.6.2.7.3.7.4.8.4.8.5.8.4.4.3.5.4.2.2.2.2m.1 1.5c.3-.5.3-1 0-1.5m-1.4 2.2h.7l.2-.1v-.1l.2-.1.1-.1.1-.1.1-.2m-4.6-.7.7.4.7.4.7.3.7.2h.4m-3-10.8c-.3.5-.2 1 .2 1.5l.2.2.2.2.5.3.4.3.8.4.8.5.8.3.7.3.7.3.7.2h.4m-5-5.2c-.6-.1-1.2.2-1.4.7m4.6.5c-1.5-.8-2.6-1.2-3.3-1.3m3.3 1.3.8.4.8.4.5.3.4.3.3.2.2.3c.4.4.5 1 .2 1.5m-1.4.7c.6 0 1.2-.2 1.4-.7m1.1-17.1c.5.4 1 .7 1.6.9m-1.7-2.1c-.2.4-.1.8.1 1.2m2.3-1.7-.3-.1h-.4l-.3-.1H307.8l-.1.1-.2.2-.1.2-.1.2m2.6-.4h-.2m-.7 2.5 1-2.5m.5-7.5c.4.4 1 .7 1.6.8m-1.9-2c-.1.4 0 .9.3 1.2m-.3-1.2v-.2l.2-.2.2-.1.1-.1h.2l.2-.1h1.1l.5.1h.2m-.8 2.6.8-2.5m-145-35.3-17.3-26.3v52.7L168 165m21.5 26.4v-52.7M172 164.9l17.4 26.4m0-52.7L172 164.9m-19.8 26.7h35.5M170 165.2l-17.7 26.4m35.5 0L170 165.2m17.7 20.4-13.5-20.7m0 0 13.5-20.6m0 0v41.3m-3.2-45.6h-29l7.4 11m21.6-11-7.4 11m0 0H163m6.3 29.1H162m0 0 7-10.5m0 0V180m8.9 0-7-10.5V180m7 0h-7M.1 268l-.2-.3m187.8-129.3h-35.5l17.7 26.4 17.8-26.4Zm-35.5 6 13.6 20.6-13.6 20.7v-41.3ZM36.6 111.6l-10.5-4 .4-1.3L36 110l1.7-4.2 1.1.4-2 5.4ZM36 104l.5-1h.2c.7.3 1.3.4 1.7.3.5 0 .8-.4 1-1 .3-.5.3-1 .1-1.5-.2-.4-.7-.8-1.3-1.1-.7-.3-1.3-.4-1.8-.2s-.9.6-1.2 1.3v.3l-.1.1-1-.4.1-.2c.3-.7.4-1.2.2-1.7-.1-.4-.5-.8-1.2-1a2 2 0 0 0-1.4-.2c-.4.1-.7.4-1 .9v1.2c.3.4.7.7 1.3 1h.2l-.5 1.2-.1-.1c-1-.4-1.6-1-1.9-1.6-.3-.7-.3-1.4 0-2.2.4-.8 1-1.3 1.6-1.6.7-.2 1.4-.2 2.2.2.7.2 1.1.6 1.4 1 .3.5.4 1 .3 1.4.4-.5.8-.8 1.4-1 .5 0 1.2 0 2 .4 1 .4 1.6 1 2 1.8a3 3 0 0 1-.2 2.5c-.4.9-1 1.4-1.7 1.6-.8.3-1.7.1-2.7-.3H36Zm5-6.5.6-1.2 1.4.7-.6 1.2-1.4-.7Zm.4-4.9c.8.4 1.4.6 1.9.5.5 0 .9-.3 1.2-.9.2-.4.3-.9 0-1.4-.2-.4-.6-.8-1.2-1.2-.7-.4-1.3-.5-1.8-.4-.5 0-.9.3-1.2.9-.2.4-.3 1 0 1.4.1.4.5.8 1.1 1.1Zm-5.2-4.8c-.3.4-.3.8-.1 1.2.1.3.5.7 1 1 .5.2 1 .3 1.4.2.4 0 .7-.3.9-.7.2-.4.3-.8.1-1.2a2 2 0 0 0-1-1 2 2 0 0 0-1.4-.3c-.4.1-.7.4-1 .8Zm3.2 3a2 2 0 0 1-1.3.6c-.5 0-1-.1-1.6-.4a3 3 0 0 1-1.5-1.7c-.2-.6-.2-1.3.3-2 .4-.8.9-1.3 1.6-1.4.6-.2 1.4-.1 2.1.3.6.3 1 .7 1.2 1.1.3.4.3 1 .2 1.5.4-.5 1-.8 1.5-.9.5 0 1.2.1 1.9.5 1 .6 1.6 1.2 2 2 .2.7.1 1.5-.4 2.4-.4.8-1 1.3-1.8 1.5-.8.2-1.7 0-2.6-.4-.7-.4-1.2-1-1.5-1.5a2 2 0 0 1-.1-1.7Zm9.4-4.3-7-4.3-1.3 2-.9-.5.1-.1c.4-.7.6-1.3.5-1.8 0-.6-.4-1-1-1.4l.5-.9 9.7 6-.6 1Zm2.4-3.9s0 0 0 0l-.3-.2c-.6-.5-1.1-1-1.5-1.6-.3-.6-.5-1.4-.7-2.3v-.7l-.4-2.1c0-.3-.2-.6-.4-.8a4 4 0 0 0-.8-.8c-.6-.3-1-.5-1.5-.5s-.8.3-1.2.8c-.3.4-.3.9-.2 1.3.2.4.6.9 1.3 1.3l.3.2-.7 1h-.2l-.2-.2c-.9-.6-1.4-1.3-1.6-2-.2-.8 0-1.6.4-2.3.6-.8 1.2-1.2 2-1.3.7-.1 1.4 0 2.2.6l1 .9c.3.3.5.6.6 1 .2.3.3 1 .4 2v.5c.1 1 .3 1.8.5 2.3.2.5.4 1 .8 1.2l2.7-4 1 .7-3.5 5Zm3.3-7.3.8-1.1 1.3.9-.8 1-1.3-.8Zm.5-4.8 2-2.3-4.5-3.8 2.5 6.1Zm5 .1-2.2-1.8-2.6 3.2-.8-.7-3.1-7.9.7-.8 5.7 4.6.7-.8.8.7-.6.8 2.2 1.8-.7 1ZM277.7 68l-.5-.6 7.8-6.8-2.7-.4.7-.6 2.7.4.5.6-8.5 7.4Zm6.4 7.9-3.7-4.7.6-.5h7.5a2.8 2.8 0 0 0 2.5-1.6c.2-.3.3-.7.2-1 0-.4-.2-.8-.5-1.1-.4-.5-.9-.8-1.4-1-.5 0-1.1.2-1.7.6l-.5-.6a3 3 0 0 1 2.2-.7c.7.1 1.4.5 2 1.2l.6 1.1v1.1c0 .4-.1.7-.3 1l-.8 1a3.2 3.2 0 0 1-2.2.7h-7l3 4-.5.5Zm7.1 4.8c-.5.3-1 .5-1.6.6-.6 0-1 0-1.6-.3l-1.2-1.2c-.5-.7-.7-1.5-.7-2.2 0-.8.5-1.5 1.2-2l.5.6c-.6.5-.9 1-1 1.6 0 .5.2 1.1.6 1.6.4.6.9 1 1.5 1 .6.2 1.2 0 1.8-.4.7-.4 1-1 1.2-1.5 0-.5-.1-1.2-.6-1.9l-.1-.1.6-.4.1.1c.3.4.6.7 1 .9.3.2.6.2 1 .2.3 0 .7-.3 1.1-.5l.7-.7.4-.8v-.8l-.4-.8c-.4-.5-.9-.9-1.4-1-.5 0-1 0-1.6.3l-.5-.6a3 3 0 0 1 2.3-.4c.7.2 1.3.6 1.8 1.3.3.5.5 1 .5 1.5.1.5 0 1-.2 1.4-.3.5-.6.9-1.1 1.2-1 .8-2 .8-3 .2.3 1.2-.1 2.2-1.3 3Zm3.5 7.8-.8-1.3-1.6 1-.4-.7 1.6-1-2.3-3.8.6-.4 9.6-1 .4.7-9.6 1L294 86l3-1.8.5.6-3 2 .7 1.2-.6.4Zm5.4 6-1.6.6h-1.5a3 3 0 0 1-1.7-1.5c-.5-.9-.6-1.6-.4-2.3.2-.6.6-1.1 1.3-1.5l.3.7c-.5.3-.8.7-.9 1.2-.1.5 0 1 .3 1.5l.5.7.7.4h1.2a8 8 0 0 0 1.4-.6c.7-.4 1.3-.9 1.7-1.4.3-.5.3-1.1 0-1.8-.3-.5-.6-.8-1-1-.3-.3-.7-.4-1.1-.3l-.3-.6 5-2.7 2.6 4.7-.6.4-2.2-4.2-3.6 2c.7 0 1.3.6 1.8 1.4.4.7.5 1.4.3 2-.2.5-.4.9-.8 1.2l-1.4 1Zm2.6 6.8c.7-.3 1.1-.7 1.4-1.3a2 2 0 0 0 0-1.8 2 2 0 0 0-1.3-1c-.6-.2-1.2-.2-2 .2-.6.3-1 .7-1.3 1.3a2 2 0 0 0 0 1.7c.2.4.5.7.8.9.3.2.7.3 1.1.3a3 3 0 0 0 1.3-.3Zm.4.7-1.2.4-1.2-.1c-.4-.1-.7-.3-1-.6-.4-.2-.6-.6-.8-1-.4-.8-.5-1.6-.2-2.4.4-.7 1-1.2 1.8-1.6l1-.4h7.9l.4.8-5.9-.1c.4.2.6.6.8 1 .3.6.4 1.1.3 1.6 0 .6-.2 1-.6 1.4-.3.4-.7.8-1.3 1Zm10 5-11.2.2-.3-.7 11.3-.3-1.6-4-1.7.7-.3-.7 2.3-1 2.2 5.5-.6.3Zm.5 7.8c.4-.1.8-.3 1-.6.3-.3.5-.6.5-1v-1.2l-.7-1a2 2 0 0 0-1-.4l-1.2.1c-.6.2-1 .6-1.3 1a2 2 0 0 0 0 1.8c0 .4.3.7.6 1 .2.2.6.4 1 .4l1.1-.1Zm-5 2 .9-.5.5-.8c.2-.2.3-.5.3-.8l-.1-1c-.2-.4-.4-.8-.7-1-.4-.3-.7-.5-1.2-.6l-1.2.1c-.7.2-1.2.6-1.4 1.2-.3.6-.4 1.2-.1 1.9a2.4 2.4 0 0 0 1.8 1.6l1.2-.1Zm.3.7c-.6.2-1.2.2-1.7.1a3 3 0 0 1-1.4-.7 3.2 3.2 0 0 1-1-3 3.1 3.1 0 0 1 3.7-2.6c.6.2 1 .5 1.5 1 .1-.7.3-1.1.7-1.5.3-.4.7-.7 1.3-.9l1.1-.2c.4 0 .8.2 1.1.3l1 .7.5 1c.2.6.3 1.2.1 1.7 0 .5-.3 1-.6 1.3a3 3 0 0 1-1.3.8 3 3 0 0 1-1.6.2 3 3 0 0 1-1.3-.8l-.4 1.1a3 3 0 0 1-.7 1l-1 .5Zm-205.1-47 1.4 1.8.6 16.6 1.6-1.4 2.2-2c1.4-1.8 1.2-3.7-.7-5.9l-.4-.5 1.6-1.4 5 5.9-11.6 9.6-1.3-1.6-.6-16.8-1.8 1.5c-1.1 1-1.8 1.6-2 2-.6.5-.8 1.3-.7 2.1a5 5 0 0 0 1 2.5l.9 1.1-1.6 1.3-4.6-5.5 11-9.2Zm11.1-1.8 3 5.2c.6 1.1 1 1.9 1.4 2.2.6.6 1.4.8 2.3.8.7 0 1.3-.3 2-.7 1.2-.6 1.8-1.5 2-2.5 0-.6 0-1.1-.3-1.6l-1-1.8-3-5.3-.7-1.3a1 1 0 0 0-.4-.4.8.8 0 0 0-.7 0 4 4 0 0 0-.6.2l-1.6 1-.9-1.7 7.6-4.2 1 1.6-1.3.7c-.4.2-.6.3-.7.5-.2.3-.2.6 0 1l.7 1.4 3 5.2a61 61 0 0 1 1.3 2.9c.5 1.4.2 2.7-.6 4a9 9 0 0 1-3 2.6 9.5 9.5 0 0 1-3.9 1.2c-1.5.2-2.9-.4-4-1.6a15 15 0 0 1-1.6-2.5l-3-5.2-.8-1.4a1 1 0 0 0-.3-.3.8.8 0 0 0-.8-.1l-.6.2-1.5.9-.9-1.6 8.4-4.7 1 1.6-1.5.8c-.3.2-.6.3-.7.5-.2.3-.2.6 0 1l.7 1.4Zm30.8-7.2 2.3 7-15 5-.6-1.7 1.6-.6.8-.4c.2-.2.3-.5.2-1l-.5-1.4-2.7-8a56 56 0 0 0-.8-1.9.8.8 0 0 0-.7-.2l-.6.2-1.6.5-.6-1.7 9.1-3 .6 1.7-1.5.5a2 2 0 0 0-.8.4c-.3.2-.3.5-.2 1l.4 1.4 3.5 10.4 2.6-.9 1.5-.5.7-.5c1-.8 1.4-2 1.1-3.5a17 17 0 0 0-.6-2.2l1.8-.6Zm6-6.5.9 6c.1 1.2.3 2 .5 2.5.3.8 1 1.3 1.8 1.5.7.2 1.4.3 2.1.2 1.4-.2 2.3-.8 2.8-1.7.3-.5.4-1 .3-1.6l-.2-2-.9-6a51.5 51.5 0 0 0-.4-2 .8.8 0 0 0-.7-.3h-.6l-1.8.3-.3-1.8 8.7-1.3.2 1.9-1.4.2a2 2 0 0 0-.9.2c-.3.2-.4.5-.4 1l.2 1.5.9 6a84.9 84.9 0 0 1 .3 3.1 4.4 4.4 0 0 1-2 3.4 9 9 0 0 1-3.9 1.4c-1.5.2-2.8.2-4-.2a4.6 4.6 0 0 1-3.1-3c-.3-.5-.5-1.5-.7-2.9l-.8-6a53.3 53.3 0 0 0-.5-2 .8.8 0 0 0-.7-.3h-.6l-1.7.3-.3-1.8 9.6-1.4.3 1.9-1.6.2-1 .2c-.2.2-.3.5-.3 1l.2 1.5Zm23.4-6 15.8 1.7-.8 7-2-.2c.3-1.7.1-3-.5-4-.7-1-1.8-1.5-3.2-1.7l-1.2 11-.2 1.5.1.5c.1.2.3.4.6.5h.6l2 .3-.2 1.8-10.3-1.1.2-1.9 2 .3h1c.3-.2.5-.4.5-.9l.2-1.5 1.3-10.8c-3-.4-4.5 1-4.9 4.1v.6l-1.8-.3.8-7Zm18.8 15.7 2.2-8 .3-1.7v-.4c0-.3-.2-.5-.5-.6a3 3 0 0 0-.6-.2l-1.5-.4.4-1.8 9.1 2.4-.5 1.8-1.4-.4a2 2 0 0 0-.9-.1c-.3 0-.5.3-.7.8l-.4 1.4-2.1 8-.4 1.5c0 .5 0 .9.3 1 .1.2.4.3.8.4l1.4.4-.5 1.8-9-2.4.4-1.8 1.6.4.9.1c.3 0 .6-.3.7-.7l.4-1.5Zm15.6 10 2.2-15.6-4.6 9.6a52.8 52.8 0 0 0-.8 2c0 .2.2.4.4.6l.6.3 1.2.6-.8 1.7-7.4-3.6.8-1.6 1.3.6.9.3c.3 0 .6-.2.8-.7l.7-1.3 3.6-7.6.7-1.3v-1c-.2-.2-.4-.4-.8-.5l-1.4-.7.8-1.6 7.4 3.5-1.7 11.8 8.4-8.6 7.5 3.6-.8 1.6-1.5-.7a2 2 0 0 0-.9-.2c-.3 0-.6.1-.8.6l-.7 1.3-3.6 7.6a42.5 42.5 0 0 0-.7 2c0 .2 0 .4.3.6l.6.3 1.4.7-.8 1.6-8.6-4 .8-1.7 1.5.7.8.2c.4 0 .7-.2.9-.6l.7-1.3 4.6-9.7-11.2 11.4-1.8-.9Zm37 4-4.4 5.5-1.5-1.2c1-1.1 1.5-2.2 1.7-3.1.2-.7.1-1.3-.1-1.8-.3-.5-.8-1-1.5-1.7l-3.4-2.7-3.5 4.3.4.4.7.5c.7.6 1.3.7 1.9.5a5 5 0 0 0 1.7-1.6l.2-.2 1.4 1.2-5.6 6.8-1.4-1.2c.7-.8 1.2-1.5 1.3-2.1.3-.6.2-1.1-.2-1.6l-.6-.6-.5-.4-.4-.3-3.9 4.8 3.3 2.6c.7.6 1.3 1 1.6 1 1.5.6 3 0 4.5-1.8l.6-.8 1.5 1.2-4.6 5.7-13.1-10.6 1.2-1.4 1.2 1 .8.4c.3.1.6 0 1-.4l1-1.1 5.2-6.5 1-1.4.2-.3c0-.3 0-.5-.2-.8l-.5-.4-1.2-1 1.1-1.4 13.1 10.6Z" stroke="#000" stroke-miterlimit="10" stroke-linecap="round" stroke-linejoin="round"/></svg>